<svg width="322" height="348" viewBox="0 0 322 348" fill="none" xmlns="http://www.w3.org/2000/svg">
<path d="M203.807 135.965C215.597 147.935 227.498 159.847 240.311 170.759C244.141 174.009 249.978 168.925 247.78 164.619C243.973 157.149 238.664 150.653 234.066 143.676C230.138 137.706 225.184 131.152 224.559 123.814L217.832 129.286C223.357 131.003 226.958 134.837 231.348 138.422C236.581 142.7 241.916 146.861 247.251 151.021C256.462 158.221 266.209 165.476 277.708 168.432C282.719 169.726 286.13 164.914 283.36 160.58C281.099 157.015 278.061 153.9 274.526 151.596C270.579 148.993 266.54 146.447 262.51 143.96C254.296 138.909 245.738 134.36 236.968 130.372C228.197 126.385 219.435 123.572 210.247 121.497C207.997 120.991 205.77 120.623 203.597 119.841C201.211 118.993 198.747 118.541 196.216 118.669C191.452 118.896 187.742 121.364 184.734 124.914C183.647 126.206 183.484 128.442 184.251 129.919C187.102 135.497 191.159 140.392 196.421 143.855C199.214 145.712 202.268 147.182 205.141 148.905C208.413 150.846 211.719 152.741 215.052 154.551C221.805 158.218 228.655 161.727 235.531 165.15C238.746 166.736 241.976 168.543 245.307 169.846C248.1 170.953 249.918 170.8 251.712 173.488L257.364 165.636C247.751 162.82 238.705 158.512 229.593 154.418C220.482 150.324 210.738 146.576 201.084 143.259C196.065 141.541 191.022 139.928 185.934 138.403C180.845 136.879 176.319 135.202 171.339 134.349C166.672 133.546 161.921 133.731 157.215 133.685C152.265 133.638 146.864 135.428 143.464 139.183C139.516 143.555 139.945 149.061 141.285 154.316C142.625 159.572 145.091 164.523 149.488 168.147C151.572 169.876 154.947 169.085 156.474 167.012C159.735 162.529 155.824 157.407 152.754 154.094C151.157 152.367 149.418 150.765 147.682 149.182C146.827 148.408 145.786 147.24 144.637 146.899C139.141 145.238 135.526 151.907 139.919 155.633L139.925 155.673C141.895 152.96 143.845 150.251 145.795 147.542C142.18 144.744 138.418 140.916 134.126 139.181C129.833 137.446 125.534 138.408 121.911 141.166L124.288 140.09C119.842 141.401 116.568 144.062 115.504 148.735C115.033 150.819 113.961 152.696 113.368 154.779C112.701 157.158 112.244 159.584 112.136 162.034C112.049 164.238 112.284 166.43 112.433 168.595C112.585 171.023 112.444 173.519 112.516 175.961C112.659 180.701 113.123 185.43 115.088 189.794C117.054 194.158 124.538 193.347 124.6 188.248C124.709 179.817 124.035 171.433 122.075 163.237C121.25 159.782 121.542 156.349 119.046 153.329C117.96 152.005 116.518 150.983 114.963 150.262C114.021 149.827 113.058 149.761 112.11 149.408C111.352 149.106 110.506 148.635 109.481 148.437C105.007 147.583 101.123 149.856 98.2739 153.137C96.8213 154.792 95.5879 156.675 94.2958 158.446C92.8385 160.447 91.2106 162.394 90.0254 164.573C85.7841 172.5 82.1628 180.752 79.2078 189.24C77.4826 194.203 75.9084 199.223 74.331 204.223C73.6653 206.359 72.3861 208.209 71.7892 210.394C71.0923 212.96 71.0066 215.549 71.552 218.156C72.6298 223.293 78.9168 223.467 81.1523 219.15C85.58 210.626 88.3113 201.384 91.1177 192.23C93.9242 183.077 96.5911 173.44 97.7858 163.718C97.993 162.001 97.1952 160.083 95.7428 159.123C92.0153 156.628 87.6544 155.593 83.4524 157.654C81.4073 158.656 79.7477 160.284 78.3308 162.035C77.7561 162.736 77.3879 163.587 76.8559 164.302C75.9439 165.545 74.6643 166.644 73.6179 167.808C67.339 174.789 61.722 182.351 56.8262 190.364C51.9305 198.377 47.2417 207.288 42.8038 215.875C38.366 224.462 34.0009 233.747 30.3395 242.999C26.1971 253.403 22.872 264.1 20.4793 275.051C20.0376 277.069 21.7105 279.635 23.654 280.252L25.1705 280.735C27.9478 281.622 30.3422 280.401 31.6307 277.861C38.8975 263.624 44.2744 248.478 51.1672 234.059C58.06 219.64 65.9811 206.189 74.6704 192.978C79.6533 185.376 84.8623 177.921 90.1894 170.568C93.9798 165.35 85.8578 159.493 82.0674 164.711C72.5039 177.902 63.399 191.424 55.0846 205.446C46.7701 219.468 39.943 233.917 33.5582 248.72C29.8633 257.267 26.5132 265.941 22.2737 274.253L28.7338 271.378L27.2172 270.895L30.3916 276.096C34.143 258.923 40.7809 242.437 48.471 226.692C52.3906 218.656 56.7989 210.884 61.0072 203.003C64.9506 195.612 69.6161 188.548 74.7595 181.935C77.607 178.269 80.638 174.735 83.7966 171.364C85.2622 169.787 86.095 167.807 87.8913 166.522C87.6935 166.676 88.2267 166.467 88.3516 166.488C88.8279 166.552 89.32 166.837 89.8674 167.214L87.8243 162.62C86.6842 171.806 84.2142 180.662 81.4977 189.496C78.7813 198.331 76.0809 207.264 71.7923 215.523L81.3928 216.517C81.0378 214.831 81.0631 213.367 81.8384 211.781C82.9318 209.536 83.7618 207.414 84.5271 205.019C85.981 200.505 87.3725 195.981 88.9545 191.507C92.1147 182.662 95.6742 173.407 101.242 165.791C102.653 163.879 103.989 161.878 105.468 160.016C106.139 159.157 106.873 158.186 107.773 158.243C108.203 158.274 110.294 159.171 110.294 159.171C110.678 159.291 111.734 159.93 110.941 159.289C111.547 159.778 111.692 160.545 111.811 161.904C112.154 166.005 113.403 170.079 113.913 174.213C114.423 178.347 114.685 182.825 114.619 187.154L124.131 185.608C122.254 181.412 122.345 176.492 122.323 171.995C122.306 167.031 121.432 162.023 122.995 157.188C123.371 156.012 123.902 154.912 124.366 153.782C124.791 152.781 124.906 151.748 125.193 150.769C125.23 150.621 125.745 149.929 125.353 150.256C125.837 149.874 125.922 150.022 126.489 149.768C127.279 149.396 128.054 148.682 128.86 148.409C130.144 147.957 131.123 148.873 132.208 149.69C134.797 151.661 137.35 153.658 139.922 155.653C142.056 157.313 145.352 156.656 146.908 154.517C148.593 152.176 147.839 149.278 145.772 147.526L145.765 147.486C144.173 150.401 142.6 153.312 141.028 156.223C139.219 155.686 139.864 155.419 140.319 155.974C140.62 156.33 141.075 156.641 141.429 156.949C141.688 157.17 142.808 158.204 142.543 157.943C142.065 157.494 142.952 158.343 143.047 158.429C143.384 158.759 143.722 159.09 144.039 159.424C145.13 160.524 146.207 161.666 147.138 162.914C147.394 163.237 147.632 163.583 147.848 163.913C147.547 163.435 147.515 163.359 147.789 163.923C148.063 164.487 147.783 164.633 147.737 163.607C147.783 164.633 148.024 161.634 148.371 161.152L155.357 160.017C152.831 157.934 151.591 154.669 150.923 151.554C150.164 148.129 149.653 145.982 153.377 144.343C154.812 143.705 156.292 143.586 157.83 143.701C159.841 143.86 161.843 143.596 163.878 143.65C167.927 143.763 171.938 144.388 175.791 145.667C184.333 148.496 192.994 150.94 201.486 153.959C209.977 156.978 217.982 160.117 226.024 163.736C235.136 167.83 244.184 172.157 253.794 174.954C258.771 176.416 262.239 171.331 259.445 167.102C257.726 164.503 255.154 162.508 252.242 161.421C250.69 160.842 249.14 160.648 247.64 159.898C246.141 159.148 244.524 158.418 242.962 157.658C236.299 154.423 229.695 151.057 223.158 147.598C216.621 144.14 210.762 140.369 204.421 137C199.613 134.457 195.835 130.53 193.349 125.703L192.866 130.708C194.821 128.404 197.251 128.151 200.021 129.119C203.993 130.501 208.198 131.075 212.283 132.154C220.39 134.303 228.26 137.241 235.849 140.812C243.437 144.383 251.05 148.478 258.267 153.002C261.763 155.191 265.281 157.396 268.707 159.657C271.608 161.557 273.804 163.978 275.676 166.897L281.328 159.045C270.039 156.136 260.864 148.91 251.836 141.843C246.547 137.715 241.274 133.565 236.087 129.319C231.412 125.477 227.38 121.733 221.451 119.899C217.676 118.729 214.375 121.475 214.725 125.371C215.442 133.648 220.451 140.537 224.72 147.365C229.235 154.578 234.856 161.124 238.725 168.726L246.193 162.586C234.039 152.236 222.76 140.912 211.553 129.536C209.661 127.613 206.731 127.036 204.515 128.855C202.57 130.469 201.941 133.957 203.837 135.899L203.807 135.965Z" fill="#FDFB2B"/>
<path d="M203.807 135.965C215.597 147.935 227.498 159.847 240.311 170.759C244.141 174.009 249.978 168.925 247.78 164.619C243.973 157.149 238.664 150.653 234.066 143.676C230.138 137.706 225.184 131.152 224.559 123.814L217.832 129.286C223.357 131.003 226.958 134.837 231.348 138.422C236.581 142.7 241.916 146.861 247.251 151.021C256.462 158.221 266.209 165.476 277.708 168.432C282.719 169.726 286.13 164.914 283.36 160.58C281.099 157.015 278.061 153.9 274.526 151.596C270.579 148.993 266.54 146.447 262.51 143.96C254.296 138.909 245.738 134.36 236.968 130.372C228.197 126.385 219.435 123.572 210.247 121.497C207.997 120.991 205.77 120.623 203.597 119.841C201.211 118.993 198.747 118.541 196.216 118.669C191.452 118.896 187.742 121.364 184.734 124.914C183.647 126.206 183.484 128.442 184.251 129.919C187.102 135.497 191.159 140.392 196.421 143.855C199.214 145.712 202.268 147.182 205.141 148.905C208.413 150.846 211.719 152.741 215.052 154.551C221.805 158.218 228.655 161.727 235.531 165.15C238.746 166.736 241.976 168.543 245.307 169.846C248.1 170.953 249.918 170.8 251.712 173.488L257.364 165.636C247.751 162.82 238.705 158.512 229.593 154.418C220.482 150.324 210.738 146.576 201.084 143.259C196.065 141.541 191.022 139.928 185.934 138.403C180.845 136.879 176.319 135.202 171.339 134.349C166.672 133.546 161.921 133.731 157.215 133.685C152.265 133.638 146.864 135.428 143.464 139.183C139.516 143.555 139.945 149.061 141.285 154.316C142.625 159.572 145.091 164.523 149.488 168.147C151.572 169.876 154.947 169.085 156.474 167.012C159.735 162.529 155.824 157.407 152.754 154.094C151.157 152.367 149.418 150.765 147.682 149.182C146.827 148.408 145.786 147.24 144.637 146.899C139.141 145.238 135.526 151.907 139.919 155.633L139.925 155.673C141.895 152.96 143.845 150.251 145.795 147.542C142.18 144.744 138.418 140.916 134.126 139.181C129.833 137.446 125.534 138.408 121.911 141.166L124.288 140.09C119.842 141.401 116.568 144.062 115.504 148.735C115.033 150.819 113.961 152.696 113.368 154.779C112.701 157.158 112.244 159.584 112.136 162.034C112.049 164.238 112.284 166.43 112.433 168.595C112.585 171.023 112.444 173.519 112.516 175.961C112.659 180.701 113.123 185.43 115.088 189.794C117.054 194.158 124.538 193.347 124.6 188.248C124.709 179.817 124.035 171.433 122.075 163.237C121.25 159.782 121.542 156.349 119.046 153.329C117.96 152.005 116.518 150.983 114.963 150.262C114.021 149.827 113.058 149.761 112.11 149.408C111.352 149.106 110.506 148.635 109.481 148.437C105.007 147.583 101.123 149.856 98.2739 153.137C96.8213 154.792 95.5879 156.675 94.2958 158.446C92.8385 160.447 91.2106 162.394 90.0254 164.573C85.7841 172.5 82.1628 180.752 79.2078 189.24C77.4826 194.203 75.9084 199.223 74.331 204.223C73.6653 206.359 72.3861 208.209 71.7892 210.394C71.0923 212.96 71.0066 215.549 71.552 218.156C72.6298 223.293 78.9168 223.467 81.1523 219.15C85.58 210.626 88.3113 201.384 91.1177 192.23C93.9242 183.077 96.5911 173.44 97.7858 163.718C97.993 162.001 97.1952 160.083 95.7428 159.123C92.0153 156.628 87.6544 155.593 83.4524 157.654C81.4073 158.656 79.7477 160.284 78.3308 162.035C77.7561 162.736 77.3879 163.587 76.8559 164.302C75.9439 165.545 74.6643 166.644 73.6179 167.808C67.339 174.789 61.722 182.351 56.8262 190.364C51.9305 198.377 47.2417 207.288 42.8038 215.875C38.366 224.462 34.0009 233.747 30.3395 242.999C26.1971 253.403 22.872 264.1 20.4793 275.051C20.0376 277.069 21.7105 279.635 23.654 280.252L25.1705 280.735C27.9478 281.622 30.3422 280.401 31.6307 277.861C38.8975 263.624 44.2744 248.478 51.1672 234.059C58.06 219.64 65.9811 206.189 74.6704 192.978C79.6533 185.376 84.8623 177.921 90.1894 170.568C93.9798 165.35 85.8578 159.493 82.0674 164.711C72.5039 177.902 63.399 191.424 55.0846 205.446C46.7701 219.468 39.943 233.917 33.5582 248.72C29.8633 257.267 26.5132 265.941 22.2737 274.253L28.7338 271.378L27.2172 270.895L30.3916 276.096C34.143 258.923 40.7809 242.437 48.471 226.692C52.3906 218.656 56.7989 210.884 61.0072 203.003C64.9506 195.612 69.6161 188.548 74.7595 181.935C77.607 178.269 80.638 174.735 83.7966 171.364C85.2622 169.787 86.095 167.807 87.8913 166.522C87.6935 166.676 88.2267 166.467 88.3516 166.488C88.8279 166.552 89.32 166.837 89.8674 167.214L87.8243 162.62C86.6842 171.806 84.2142 180.662 81.4977 189.496C78.7813 198.331 76.0809 207.264 71.7923 215.523L81.3928 216.517C81.0378 214.831 81.0631 213.367 81.8384 211.781C82.9318 209.536 83.7618 207.414 84.5271 205.019C85.981 200.505 87.3725 195.981 88.9545 191.507C92.1147 182.662 95.6742 173.407 101.242 165.791C102.653 163.879 103.989 161.878 105.468 160.016C106.139 159.157 106.873 158.186 107.773 158.243C108.203 158.274 110.294 159.171 110.294 159.171C110.678 159.291 111.734 159.93 110.941 159.289C111.547 159.778 111.692 160.545 111.811 161.904C112.154 166.005 113.403 170.079 113.913 174.213C114.423 178.347 114.685 182.825 114.619 187.154L124.131 185.608C122.254 181.412 122.345 176.492 122.323 171.995C122.306 167.031 121.432 162.023 122.995 157.188C123.371 156.012 123.902 154.912 124.366 153.782C124.791 152.781 124.906 151.748 125.193 150.769C125.23 150.621 125.745 149.929 125.353 150.256C125.837 149.874 125.922 150.022 126.489 149.768C127.279 149.396 128.054 148.682 128.86 148.409C130.144 147.957 131.123 148.873 132.208 149.69C134.797 151.661 137.35 153.658 139.922 155.653C142.056 157.313 145.352 156.656 146.908 154.517C148.593 152.176 147.839 149.278 145.772 147.526L145.765 147.486C144.173 150.401 142.6 153.312 141.028 156.223C139.219 155.686 139.864 155.419 140.319 155.974C140.62 156.33 141.075 156.641 141.429 156.949C141.688 157.17 142.808 158.204 142.543 157.943C142.065 157.494 142.952 158.343 143.047 158.429C143.384 158.759 143.722 159.09 144.039 159.424C145.13 160.524 146.207 161.666 147.138 162.914C147.394 163.237 147.632 163.583 147.848 163.913C147.547 163.435 147.515 163.359 147.789 163.923C148.063 164.487 147.783 164.633 147.737 163.607C147.783 164.633 148.024 161.634 148.371 161.152L155.357 160.017C152.831 157.934 151.591 154.669 150.923 151.554C150.164 148.129 149.653 145.982 153.377 144.343C154.812 143.705 156.292 143.586 157.83 143.701C159.841 143.86 161.843 143.596 163.878 143.65C167.927 143.763 171.938 144.388 175.791 145.667C184.333 148.496 192.994 150.94 201.486 153.959C209.977 156.978 217.982 160.117 226.024 163.736C235.136 167.83 244.184 172.157 253.794 174.954C258.771 176.416 262.239 171.331 259.445 167.102C257.726 164.503 255.154 162.508 252.242 161.421C250.69 160.842 249.14 160.648 247.64 159.898C246.141 159.148 244.524 158.418 242.962 157.658C236.299 154.423 229.695 151.057 223.158 147.598C216.621 144.14 210.762 140.369 204.421 137C199.613 134.457 195.835 130.53 193.349 125.703L192.866 130.708C194.821 128.404 197.251 128.151 200.021 129.119C203.993 130.501 208.198 131.075 212.283 132.154C220.39 134.303 228.26 137.241 235.849 140.812C243.437 144.383 251.05 148.478 258.267 153.002C261.763 155.191 265.281 157.396 268.707 159.657C271.608 161.557 273.804 163.978 275.676 166.897L281.328 159.045C270.039 156.136 260.864 148.91 251.836 141.843C246.547 137.715 241.274 133.565 236.087 129.319C231.412 125.477 227.38 121.733 221.451 119.899C217.676 118.729 214.375 121.475 214.725 125.371C215.442 133.648 220.451 140.537 224.72 147.365C229.235 154.578 234.856 161.124 238.725 168.726L246.193 162.586C234.039 152.236 222.76 140.912 211.553 129.536C209.661 127.613 206.731 127.036 204.515 128.855C202.57 130.469 201.941 133.957 203.837 135.899L203.807 135.965Z" fill="#FDFB2B"/>
<path d="M81.3098 54.0706C107.126 34.8064 133.321 34.1191 157.771 42.4823C177.085 49.0887 195.384 61.3529 211.857 74.2974C211.105 71.7926 212.181 69.0193 214.569 67.72C216.569 66.6323 218.635 65.4853 220.758 64.3069C229.855 59.2586 240.006 53.6259 250.478 49.5363C263.489 44.4555 277.761 41.4212 292.324 44.8456C297.866 46.1486 302.27 48.8284 304.518 53.2838C306.699 57.6087 306.156 62.2628 304.912 66.0367C302.462 73.4705 296.257 80.7852 291.486 84.9451C269.977 103.7 243.211 116.807 218.595 128.861C217.93 129.186 217.265 129.512 216.604 129.836C171.251 152.055 123.238 165.489 72.7592 168.725C70.874 168.846 69.1466 168.026 68.0329 166.67C68.0173 166.669 68.0012 166.669 67.9856 166.668C62.3385 166.227 58.5055 162.72 56.0955 158.809C53.7479 154.999 52.3786 150.283 51.53 145.829C49.8206 136.857 49.8931 127.041 49.9503 122.741C50.1085 110.864 53.0865 97.4223 58.3451 85.1932C63.5875 73.0018 71.3058 61.5356 81.3098 54.0706ZM154.116 53.1651C132.585 45.8003 110.412 46.4421 88.0627 63.1187C80.1466 69.0256 73.4661 78.608 68.7167 89.6527C63.9836 100.66 61.3758 112.643 61.2393 122.891C61.182 127.195 61.1478 135.982 62.6211 143.715C63.3638 147.614 64.4083 150.778 65.7073 152.886C66.9438 154.893 67.9906 155.343 68.8659 155.412C70.4377 155.535 71.8076 156.291 72.7475 157.41C121.394 154.195 167.735 141.205 211.637 119.697C212.113 119.464 212.589 119.23 213.065 118.997C238.095 106.736 263.695 94.1984 284.067 76.4352C288.043 72.9677 292.621 67.2601 294.189 62.5026C294.955 60.1807 294.729 58.9463 294.437 58.3689C294.212 57.9222 293.353 56.6856 289.739 55.836C278.309 53.1483 266.538 55.3857 254.585 60.0535C244.893 63.8384 235.582 69.0014 226.524 74.0237C224.323 75.2439 222.138 76.4561 219.965 77.6379C218.987 78.1702 217.92 78.3808 216.885 78.3096C219.184 80.172 221.445 82.0369 223.664 83.8917C226.056 85.8913 226.374 89.4515 224.375 91.8436C222.375 94.2356 218.815 94.5538 216.423 92.5542C197.144 76.4385 176.036 60.6627 154.116 53.1651Z" fill="#FDFB2B"/>
<path d="M70.7568 176.51C66.8263 183.98 64.3192 192.233 63.6455 200.675C63.4966 202.625 63.5908 204.576 63.4616 206.523C63.2943 208.983 62.8213 211.432 62.6572 213.912C62.3496 218.624 62.4164 223.398 62.8386 228.114C63.6635 237.427 66.2677 246.471 69.0105 255.371C71.5552 263.674 75.2098 271.453 79.8816 278.762C82.0835 282.216 84.5226 285.509 87.1762 288.625C89.8297 291.742 91.8808 295.139 94.4224 298.314C99.4009 304.519 105.417 310.008 112.027 314.408C115.479 316.705 119.178 319.023 123.03 320.546C127.513 322.331 132.182 323.762 136.735 325.353C141.287 326.945 145.993 328.977 150.791 329.961C155.314 330.868 159.906 331.46 164.501 331.686C173.686 332.119 182.607 331.054 191.546 328.973C196.037 327.939 200.672 327.551 205.176 326.474C209.68 325.397 214.334 323.992 218.787 322.356C227.138 319.276 235.358 315.142 243.054 310.648C250.341 306.382 257.092 301.311 263.019 295.28C265.903 292.338 268.558 289.23 271.471 286.344C274.385 283.458 277.148 280.394 279.655 277.128C284.568 270.714 288.563 263.517 291.537 256.019C294.95 247.355 297.149 238.078 299.852 229.164C302.556 220.251 303.644 210.992 303.348 201.694C303.201 197.177 302.4 192.746 302.177 188.261C301.955 183.776 301.148 179.063 299.857 174.61C298.567 170.157 296.757 165.504 294.447 161.258C292.136 157.011 288.835 152.905 285.988 148.847C283.435 145.227 280.97 141.776 277.791 138.664C274.782 135.727 271.621 132.977 268.222 130.509C261.24 125.44 253.643 121.444 245.19 119.656C241.016 118.773 236.754 118.472 232.507 118.514C229.815 118.526 227.308 120.048 226.991 122.958C226.718 125.395 228.701 128.499 231.433 128.48C239.341 128.411 246.867 129.601 253.913 133.321C260.27 136.667 266.212 141.073 271.237 146.196C274.292 149.288 276.638 152.88 279.138 156.427C281.639 159.974 284.491 163.565 286.474 167.54C288.343 171.311 289.873 175.239 290.823 179.342C291.774 183.445 292.006 187.867 292.41 192.221C292.814 196.574 293.522 200.433 293.495 204.633C293.469 208.834 293.125 212.945 292.474 217.044C291.077 225.644 288.014 233.967 285.494 242.263C283.213 249.79 280.746 257.043 276.663 263.829C272.948 270.008 268.42 275.67 263.119 280.566C260.282 283.176 257.982 286.347 255.217 289.027C252.452 291.706 249.537 294.207 246.448 296.513C240.145 301.227 233.14 304.738 226.116 308.251C218.534 312.079 210.549 315.039 202.262 316.892C198.061 317.839 193.675 318.146 189.529 319.185C185.384 320.224 181.19 320.966 176.968 321.409C168.797 322.23 159.93 322.009 151.908 320.008C147.537 318.914 143.239 317.018 138.988 315.54C134.737 314.061 130.321 312.813 126.206 311.049C119.853 308.351 113.767 303.806 108.75 299.107C103.255 293.959 99.4303 287.627 94.6339 281.919C84.2165 269.543 78.5906 254.868 74.8449 239.299C72.8523 231.027 72.0602 222.54 72.7078 214.062C72.8641 211.908 73.3031 209.749 73.4397 207.598C73.5688 205.651 73.4746 203.7 73.6236 201.75C73.9172 198.073 74.5394 194.424 75.6279 190.902C76.7601 187.15 78.3056 183.574 80.1334 180.115C81.3852 177.722 79.57 174.53 77.2595 173.648C74.4928 172.578 72.0513 174.13 70.7996 176.523L70.7568 176.51Z" fill="#FDFB2B"/>
<path d="M118.214 219.879L121.569 230.18C122.089 231.758 122.524 233.309 123.307 234.763C124.403 236.774 125.766 238.681 126.995 240.63C128.746 243.427 130.497 246.224 132.248 249.021C134.299 252.296 137.825 255.048 140.562 257.806C143.129 260.389 145.596 263.354 148.539 265.511C151.482 267.668 154.443 269.437 157.397 271.41C159.007 272.466 160.577 273.65 162.213 274.621C163.715 275.512 165.442 275.92 167.09 276.464C170.623 277.633 174.707 279.706 178.417 279.853C181.802 279.992 185.324 279.481 188.717 279.294C192.731 279.067 196.363 276.49 199.894 274.659C205.46 271.768 209.566 266.621 212.328 261.063C215.091 255.505 216.922 249.693 218.545 243.976C220.408 237.368 221.759 230.601 222.41 223.765C223.903 208.277 221.411 193.315 216.955 178.49L212.824 184.23L213.18 184.172C211.627 183.593 210.072 182.994 208.519 182.416L208.722 182.666L207.647 180.287L207.736 180.84C208.592 187.228 218.459 185.625 217.584 179.239C217.146 176.047 214.489 173.782 211.219 174.354C208.815 174.765 206.297 177.465 207.088 180.094C209.931 189.606 212.299 199.317 212.842 209.264C213.327 218.226 212.302 227.374 210.299 236.113C209.326 240.346 208.038 244.508 206.53 248.564C205.148 252.276 203.949 256.242 201.711 259.545C200.663 261.073 199.501 262.519 198.145 263.773C196.403 265.395 194.26 266.29 192.169 267.38C191.065 267.945 189.819 268.877 188.618 269.214C187.535 269.532 186.284 269.431 185.162 269.512L177.456 269.954L180.052 270.221C176.927 269.188 173.802 268.156 170.657 267.126C168.986 266.567 167.476 266.123 166.02 265.143L162.001 262.472C159.388 260.727 156.554 259.12 154.074 257.191C151.455 255.164 149.198 252.368 146.874 250.029C144.67 247.813 142.111 245.654 140.287 243.153C138.358 240.507 136.762 237.543 135.034 234.762C134.159 233.364 133.227 231.995 132.408 230.567C131.504 228.991 131.076 227.236 130.514 225.523L127.318 215.703C126.474 213.124 122.944 212.218 120.679 213.235C117.982 214.464 117.389 217.297 118.214 219.879Z" fill="#FDFB2B"/>
<path d="M154.791 204.151C156.466 209.596 158.2 215.031 160.942 220.059C162.185 222.35 165.055 223.81 167.581 222.527C169.864 221.366 171.381 218.362 170.046 215.883C167.304 210.855 165.59 205.416 163.896 199.975C163.555 198.875 162.182 197.78 161.148 197.401C159.983 196.962 158.379 196.939 157.259 197.526C156.139 198.114 155.094 199.034 154.688 200.275C154.222 201.649 154.389 202.797 154.814 204.167L154.791 204.151Z" fill="#FDFB2B"/>
<path d="M175.884 203.824C176.224 210.277 176.468 216.765 177.248 223.186C177.57 225.79 180.418 227.861 182.984 227.322C185.728 226.755 187.446 224.367 187.115 221.582C186.335 215.161 186.094 208.693 185.751 202.221C185.677 201.016 184.663 199.64 183.742 198.959C182.756 198.247 181.229 197.827 180.015 198.085C177.117 198.698 175.731 201.011 175.884 203.824Z" fill="#FDFB2B"/>
<path d="M70.7568 176.51C66.8263 183.98 64.3192 192.233 63.6455 200.675C63.4966 202.625 63.5908 204.576 63.4616 206.523C63.2943 208.983 62.8213 211.432 62.6572 213.912C62.3496 218.624 62.4164 223.398 62.8386 228.114C63.6635 237.427 66.2677 246.471 69.0105 255.371C71.5552 263.674 75.2098 271.453 79.8816 278.762C82.0835 282.216 84.5226 285.509 87.1762 288.625C89.8297 291.742 91.8808 295.139 94.4224 298.314C99.4009 304.519 105.417 310.008 112.027 314.408C115.479 316.705 119.178 319.023 123.03 320.546C127.513 322.331 132.182 323.762 136.735 325.353C141.287 326.945 145.993 328.977 150.791 329.961C155.314 330.868 159.906 331.46 164.501 331.686C173.686 332.119 182.607 331.054 191.546 328.973C196.037 327.939 200.672 327.551 205.176 326.474C209.68 325.397 214.334 323.992 218.787 322.356C227.138 319.276 235.358 315.142 243.054 310.648C250.341 306.382 257.092 301.311 263.019 295.28C265.903 292.338 268.558 289.23 271.471 286.344C274.385 283.458 277.148 280.394 279.655 277.128C284.568 270.714 288.563 263.517 291.537 256.019C294.95 247.355 297.149 238.078 299.852 229.164C302.556 220.251 303.644 210.992 303.348 201.694C303.201 197.177 302.4 192.746 302.177 188.261C301.955 183.776 301.148 179.063 299.857 174.61C298.567 170.157 296.757 165.504 294.447 161.258C292.136 157.011 288.835 152.905 285.988 148.847C283.435 145.227 280.97 141.776 277.791 138.664C274.782 135.727 271.621 132.977 268.222 130.509C261.24 125.44 253.643 121.444 245.19 119.656C241.016 118.773 236.754 118.472 232.507 118.514C229.815 118.526 227.308 120.048 226.991 122.958C226.718 125.395 228.701 128.499 231.433 128.48C239.341 128.411 246.867 129.601 253.913 133.321C260.27 136.667 266.212 141.073 271.237 146.196C274.292 149.288 276.638 152.88 279.138 156.427C281.639 159.974 284.491 163.565 286.474 167.54C288.343 171.311 289.873 175.239 290.823 179.342C291.774 183.445 292.006 187.867 292.41 192.221C292.814 196.574 293.522 200.433 293.495 204.633C293.469 208.834 293.125 212.945 292.474 217.044C291.077 225.644 288.014 233.967 285.494 242.263C283.213 249.79 280.746 257.043 276.663 263.829C272.948 270.008 268.42 275.67 263.119 280.566C260.282 283.176 257.982 286.347 255.217 289.027C252.452 291.706 249.537 294.207 246.448 296.513C240.145 301.227 233.14 304.738 226.116 308.251C218.534 312.079 210.549 315.039 202.262 316.892C198.061 317.839 193.675 318.146 189.529 319.185C185.384 320.224 181.19 320.966 176.968 321.409C168.797 322.23 159.93 322.009 151.908 320.008C147.537 318.914 143.239 317.018 138.988 315.54C134.737 314.061 130.321 312.813 126.206 311.049C119.853 308.351 113.767 303.806 108.75 299.107C103.255 293.959 99.4303 287.627 94.6339 281.919C84.2165 269.543 78.5906 254.868 74.8449 239.299C72.8523 231.027 72.0602 222.54 72.7078 214.062C72.8641 211.908 73.3031 209.749 73.4397 207.598C73.5688 205.651 73.4746 203.7 73.6236 201.75C73.9172 198.073 74.5394 194.424 75.6279 190.902C76.7601 187.15 78.3056 183.574 80.1334 180.115C81.3852 177.722 79.57 174.53 77.2595 173.648C74.4928 172.578 72.0513 174.13 70.7996 176.523L70.7568 176.51Z" fill="#FDFB2B"/>
<path d="M118.214 219.879L121.569 230.18C122.089 231.758 122.524 233.309 123.307 234.763C124.403 236.774 125.766 238.681 126.995 240.63C128.746 243.427 130.497 246.224 132.248 249.021C134.299 252.296 137.825 255.048 140.562 257.806C143.129 260.389 145.596 263.354 148.539 265.511C151.482 267.668 154.443 269.437 157.397 271.41C159.007 272.466 160.577 273.65 162.213 274.621C163.715 275.512 165.442 275.92 167.09 276.464C170.623 277.633 174.707 279.706 178.417 279.853C181.802 279.992 185.324 279.481 188.717 279.294C192.731 279.067 196.363 276.49 199.894 274.659C205.46 271.768 209.566 266.621 212.328 261.063C215.091 255.505 216.922 249.693 218.545 243.976C220.408 237.368 221.759 230.601 222.41 223.765C223.903 208.277 221.411 193.315 216.955 178.49L212.824 184.23L213.18 184.172C211.627 183.593 210.072 182.994 208.519 182.416L208.722 182.666L207.647 180.287L207.736 180.84C208.592 187.228 218.459 185.625 217.584 179.239C217.146 176.047 214.489 173.782 211.219 174.354C208.815 174.765 206.297 177.465 207.088 180.094C209.931 189.606 212.299 199.317 212.842 209.264C213.327 218.226 212.302 227.374 210.299 236.113C209.326 240.346 208.038 244.508 206.53 248.564C205.148 252.276 203.949 256.242 201.711 259.545C200.663 261.073 199.501 262.519 198.145 263.773C196.403 265.395 194.26 266.29 192.169 267.38C191.065 267.945 189.819 268.877 188.618 269.214C187.535 269.532 186.284 269.431 185.162 269.512L177.456 269.954L180.052 270.221C176.927 269.188 173.802 268.156 170.657 267.126C168.986 266.567 167.476 266.123 166.02 265.143L162.001 262.472C159.388 260.727 156.554 259.12 154.074 257.191C151.455 255.164 149.198 252.368 146.874 250.029C144.67 247.813 142.111 245.654 140.287 243.153C138.358 240.507 136.762 237.543 135.034 234.762C134.159 233.364 133.227 231.995 132.408 230.567C131.504 228.991 131.076 227.236 130.514 225.523L127.318 215.703C126.474 213.124 122.944 212.218 120.679 213.235C117.982 214.464 117.389 217.297 118.214 219.879Z" fill="#FDFB2B"/>
<path d="M154.791 204.151C156.466 209.596 158.2 215.031 160.942 220.059C162.185 222.35 165.055 223.81 167.581 222.527C169.864 221.366 171.381 218.362 170.046 215.883C167.304 210.855 165.59 205.416 163.896 199.975C163.555 198.875 162.182 197.78 161.148 197.401C159.983 196.962 158.379 196.939 157.259 197.526C156.139 198.114 155.094 199.034 154.688 200.275C154.222 201.649 154.389 202.797 154.814 204.167L154.791 204.151Z" fill="#FDFB2B"/>
<path d="M175.884 203.824C176.224 210.277 176.468 216.765 177.248 223.186C177.57 225.79 180.418 227.861 182.984 227.322C185.728 226.755 187.446 224.367 187.115 221.582C186.335 215.161 186.094 208.693 185.751 202.221C185.677 201.016 184.663 199.64 183.742 198.959C182.756 198.247 181.229 197.827 180.015 198.085C177.117 198.698 175.731 201.011 175.884 203.824Z" fill="#FDFB2B"/>
</svg>
